<svg width="32" height="28" viewBox="0 0 32 28" fill="none" xmlns="http://www.w3.org/2000/svg">
<rect width="32" height="28" fill="#E5E5E5"/>
<rect width="414" height="896" transform="translate(-55 -538)" fill="white" fill-opacity="0.8"/>
<g filter="url(#filter0_d)">
<rect x="-25" y="-35" width="354" height="102" fill="white"/>
</g>
<path d="M29.222 4.66645H21.5814V3.24978C21.5814 2.62358 21.3327 2.02302 20.8899 1.58023C20.4471 1.13743 19.8465 0.888672 19.2203 0.888672H12.6092C11.983 0.888672 11.3825 1.13743 10.9397 1.58023C10.4969 2.02302 10.2481 2.62358 10.2481 3.24978V4.66645H2.77756C2.2766 4.66645 1.79615 4.86546 1.44191 5.21969C1.08768 5.57393 0.888672 6.05437 0.888672 6.55534V25.4442C0.888672 25.9452 1.08768 26.4256 1.44191 26.7799C1.79615 27.1341 2.2766 27.3331 2.77756 27.3331H29.222C29.723 27.3331 30.2034 27.1341 30.5577 26.7799C30.9119 26.4256 31.1109 25.9452 31.1109 25.4442V6.55534C31.1109 6.05437 30.9119 5.57393 30.5577 5.21969C30.2034 4.86546 29.723 4.66645 29.222 4.66645ZM12.137 3.24978C12.137 3.12454 12.1868 3.00443 12.2753 2.91587C12.3639 2.82731 12.484 2.77756 12.6092 2.77756H19.2203C19.3456 2.77756 19.4657 2.82731 19.5543 2.91587C19.6428 3.00443 19.6926 3.12454 19.6926 3.24978V4.66645H12.137V3.24978ZM2.77756 25.4442V6.55534H29.222V25.4442H2.77756Z" fill="#130A38"/>
<path d="M18.0308 22.7999H14.8102C14.4846 22.7999 14.1723 22.6705 13.9421 22.4403C13.7118 22.21 13.5825 21.8977 13.5825 21.5721V19.0221H11.0325C10.8712 19.0221 10.7116 18.9903 10.5626 18.9286C10.4137 18.8669 10.2783 18.7765 10.1643 18.6625C10.0503 18.5485 9.95985 18.4131 9.89815 18.2642C9.83645 18.1152 9.80469 17.9555 9.80469 17.7943V14.5832C9.80469 14.422 9.83645 14.2623 9.89815 14.1133C9.95985 13.9644 10.0503 13.829 10.1643 13.715C10.2783 13.601 10.4137 13.5106 10.5626 13.4489C10.7116 13.3872 10.8712 13.3554 11.0325 13.3554H13.5825V10.8054C13.5825 10.6442 13.6142 10.4845 13.6759 10.3356C13.7376 10.1866 13.8281 10.0513 13.9421 9.93724C14.0561 9.82323 14.1914 9.7328 14.3404 9.6711C14.4894 9.60939 14.649 9.57764 14.8102 9.57764H18.0308C18.3548 9.58013 18.6647 9.71058 18.8929 9.94057C19.1211 10.1706 19.2491 10.4814 19.2491 10.8054V13.3554H21.8086C22.1326 13.3579 22.4424 13.4884 22.6706 13.7183C22.8989 13.9483 23.0269 14.2592 23.0269 14.5832V17.7943C23.0269 18.1183 22.8989 18.4292 22.6706 18.6592C22.4424 18.8891 22.1326 19.0196 21.8086 19.0221H19.2491V21.5721C19.2491 21.8961 19.1211 22.2069 18.8929 22.4369C18.6647 22.6669 18.3548 22.7974 18.0308 22.7999ZM15.0558 21.2887H17.7097V17.511H21.4875V14.8665H17.7097V11.0887H15.0558V14.8665H11.278V17.511H15.0558V21.2887Z" fill="#130A38"/>
<rect width="414" height="896" transform="translate(-55 -538)" fill="white" fill-opacity="0.8"/>
<g filter="url(#filter1_d)">
<rect x="-25" y="-35" width="354" height="102" fill="white"/>
</g>
<path d="M29.222 4.66645H21.5814V3.24978C21.5814 2.62358 21.3327 2.02302 20.8899 1.58023C20.4471 1.13743 19.8465 0.888672 19.2203 0.888672H12.6092C11.983 0.888672 11.3825 1.13743 10.9397 1.58023C10.4969 2.02302 10.2481 2.62358 10.2481 3.24978V4.66645H2.77756C2.2766 4.66645 1.79615 4.86546 1.44191 5.21969C1.08768 5.57393 0.888672 6.05437 0.888672 6.55534V25.4442C0.888672 25.9452 1.08768 26.4256 1.44191 26.7799C1.79615 27.1341 2.2766 27.3331 2.77756 27.3331H29.222C29.723 27.3331 30.2034 27.1341 30.5577 26.7799C30.9119 26.4256 31.1109 25.9452 31.1109 25.4442V6.55534C31.1109 6.05437 30.9119 5.57393 30.5577 5.21969C30.2034 4.86546 29.723 4.66645 29.222 4.66645ZM12.137 3.24978C12.137 3.12454 12.1868 3.00443 12.2753 2.91587C12.3639 2.82731 12.484 2.77756 12.6092 2.77756H19.2203C19.3456 2.77756 19.4657 2.82731 19.5543 2.91587C19.6428 3.00443 19.6926 3.12454 19.6926 3.24978V4.66645H12.137V3.24978ZM2.77756 25.4442V6.55534H29.222V25.4442H2.77756Z" fill="#130A38"/>
<path d="M18.0308 22.7999H14.8102C14.4846 22.7999 14.1723 22.6705 13.9421 22.4403C13.7118 22.21 13.5825 21.8977 13.5825 21.5721V19.0221H11.0325C10.8712 19.0221 10.7116 18.9903 10.5626 18.9286C10.4137 18.8669 10.2783 18.7765 10.1643 18.6625C10.0503 18.5485 9.95985 18.4131 9.89815 18.2642C9.83645 18.1152 9.80469 17.9555 9.80469 17.7943V14.5832C9.80469 14.422 9.83645 14.2623 9.89815 14.1133C9.95985 13.9644 10.0503 13.829 10.1643 13.715C10.2783 13.601 10.4137 13.5106 10.5626 13.4489C10.7116 13.3872 10.8712 13.3554 11.0325 13.3554H13.5825V10.8054C13.5825 10.6442 13.6142 10.4845 13.6759 10.3356C13.7376 10.1866 13.8281 10.0513 13.9421 9.93724C14.0561 9.82323 14.1914 9.7328 14.3404 9.6711C14.4894 9.60939 14.649 9.57764 14.8102 9.57764H18.0308C18.3548 9.58013 18.6647 9.71058 18.8929 9.94057C19.1211 10.1706 19.2491 10.4814 19.2491 10.8054V13.3554H21.8086C22.1326 13.3579 22.4424 13.4884 22.6706 13.7183C22.8989 13.9483 23.0269 14.2592 23.0269 14.5832V17.7943C23.0269 18.1183 22.8989 18.4292 22.6706 18.6592C22.4424 18.8891 22.1326 19.0196 21.8086 19.0221H19.2491V21.5721C19.2491 21.8961 19.1211 22.2069 18.8929 22.4369C18.6647 22.6669 18.3548 22.7974 18.0308 22.7999ZM15.0558 21.2887H17.7097V17.511H21.4875V14.8665H17.7097V11.0887H15.0558V14.8665H11.278V17.511H15.0558V21.2887Z" fill="#130A38"/>
<defs>
<filter id="filter0_d" x="-26" y="-36" width="358" height="106" filterUnits="userSpaceOnUse" color-interpolation-filters="sRGB">
<feFlood flood-opacity="0" result="BackgroundImageFix"/>
<feColorMatrix in="SourceAlpha" type="matrix" values="0 0 0 0 0 0 0 0 0 0 0 0 0 0 0 0 0 0 127 0"/>
<feOffset dx="1" dy="1"/>
<feGaussianBlur stdDeviation="1"/>
<feColorMatrix type="matrix" values="0 0 0 0 0 0 0 0 0 0 0 0 0 0 0 0 0 0 0.25 0"/>
<feBlend mode="normal" in2="BackgroundImageFix" result="effect1_dropShadow"/>
<feBlend mode="normal" in="SourceGraphic" in2="effect1_dropShadow" result="shape"/>
</filter>
<filter id="filter1_d" x="-26" y="-36" width="358" height="106" filterUnits="userSpaceOnUse" color-interpolation-filters="sRGB">
<feFlood flood-opacity="0" result="BackgroundImageFix"/>
<feColorMatrix in="SourceAlpha" type="matrix" values="0 0 0 0 0 0 0 0 0 0 0 0 0 0 0 0 0 0 127 0"/>
<feOffset dx="1" dy="1"/>
<feGaussianBlur stdDeviation="1"/>
<feColorMatrix type="matrix" values="0 0 0 0 0 0 0 0 0 0 0 0 0 0 0 0 0 0 0.25 0"/>
<feBlend mode="normal" in2="BackgroundImageFix" result="effect1_dropShadow"/>
<feBlend mode="normal" in="SourceGraphic" in2="effect1_dropShadow" result="shape"/>
</filter>
</defs>
</svg>
