<svg width="27" height="27" viewBox="0 0 27 27" fill="none" xmlns="http://www.w3.org/2000/svg">
<path d="M19.3987 26.4155H19.4348C20.1168 26.4155 20.7614 26.1469 21.2496 25.6586L24.7526 22.1556C24.8727 22.0358 24.9679 21.8934 25.0329 21.7367C25.0979 21.58 25.1314 21.4121 25.1314 21.2424C25.1314 21.0728 25.0979 20.9048 25.0329 20.7481C24.9679 20.5914 24.8727 20.4491 24.7526 20.3292L19.586 15.1625C19.4661 15.0425 19.3238 14.9472 19.1671 14.8823C19.0104 14.8173 18.8424 14.7838 18.6728 14.7838C18.5031 14.7838 18.3351 14.8173 18.1784 14.8823C18.0218 14.9472 17.8794 15.0425 17.7596 15.1625L15.7006 17.2215C14.7461 16.9373 12.9649 16.2915 11.836 15.1625C10.7071 14.0336 10.0612 12.2524 9.77705 11.2979L11.836 9.23895C11.956 9.1191 12.0513 8.97676 12.1163 8.82006C12.1812 8.66336 12.2147 8.49538 12.2147 8.32575C12.2147 8.15611 12.1812 7.98813 12.1163 7.83143C12.0513 7.67474 11.956 7.53239 11.836 7.41254L6.6693 2.24587C6.42237 2.01279 6.09566 1.88296 5.7561 1.88296C5.41653 1.88296 5.08982 2.01279 4.84289 2.24587L1.34118 5.74887C0.850347 6.2397 0.573931 6.91395 0.584264 7.60241C0.613972 9.44175 1.10093 15.8303 6.13585 20.8652C11.1708 25.9002 17.5593 26.3858 19.3987 26.4155ZM5.75739 4.9855L9.09764 8.32575L7.42751 9.99587C7.27553 10.1474 7.16388 10.3346 7.10274 10.5404C7.0416 10.7461 7.03292 10.9639 7.07747 11.1739C7.10847 11.3224 7.86668 14.8448 10.0108 16.989C12.155 19.1331 15.6774 19.8913 15.8259 19.9223C16.0359 19.9671 16.2537 19.9586 16.4595 19.8974C16.6653 19.8363 16.8525 19.7245 17.0039 19.5723L18.6741 17.9022L22.0143 21.2424L19.4232 23.8322C17.8112 23.8051 12.2958 23.3724 7.96226 19.0375C3.61451 14.6898 3.19343 9.155 3.1676 7.57529L5.75739 4.9855ZM23.833 12.2072H26.4163C26.4163 5.58095 21.4137 0.583496 14.7784 0.583496V3.16683C20.0251 3.16683 23.833 6.9682 23.833 12.2072Z" fill="#130A38"/>
</svg>
