<svg width="50" height="50" viewBox="0 0 50 50" fill="none" xmlns="http://www.w3.org/2000/svg">
<g clip-path="url(#clip0)">
<path d="M48.0841 10.2096C46.1655 7.56964 42.8056 5.18683 38.6235 3.5003C34.4639 1.82296 29.6342 0.895322 25.0239 0.888779C20.4133 0.877256 15.5776 1.79532 11.412 3.45958C7.22254 5.13351 3.85477 7.50597 1.92918 10.1397C0.0797704 12.6692 -0.453237 15.3956 0.387681 18.0243C0.933286 19.7295 2.52459 20.877 4.34842 20.8796L10.5936 20.8855C10.5958 20.8855 10.5978 20.8855 10.5999 20.8855C11.8452 20.8854 13.0152 20.3402 13.8103 19.3892C14.5971 18.4483 14.9228 17.2186 14.7045 16.0152C14.698 15.9799 14.6903 15.9448 14.6814 15.91L14.3528 14.6324C16.1725 13.7642 20.2956 12.0866 25.0047 12.1133C29.7103 12.1374 33.8306 13.814 35.6524 14.6826L35.3185 15.9529C35.3091 15.989 35.301 16.0251 35.2943 16.0615C35.0725 17.2642 35.3949 18.4947 36.1788 19.4379C36.9726 20.393 38.1434 20.9416 39.392 20.9435L45.6372 20.9493C45.6393 20.9493 45.6414 20.9493 45.6434 20.9493C47.4639 20.9492 49.0556 19.8071 49.6053 18.1055C50.4542 15.4775 49.9282 12.7472 48.0841 10.2096Z" fill="white"/>
<path d="M39.1215 27.3249L34.4643 22.4348C34.1826 22.1391 33.7922 21.9718 33.3839 21.9718H30.3741V19.9383C30.3741 19.1144 29.7062 18.4463 28.8821 18.4463C28.0581 18.4463 27.3901 19.1143 27.3901 19.9383V21.9718H22.6126V19.9383C22.6126 19.1144 21.9446 18.4463 21.1206 18.4463C20.2966 18.4463 19.6286 19.1143 19.6286 19.9383V21.9718H16.6189C16.2106 21.9718 15.8201 22.1392 15.5386 22.4348L10.8813 27.3249C7.22979 31.1591 5.21875 36.1866 5.21875 41.4813V47.6193C5.21875 48.4434 5.88672 49.1113 6.71074 49.1113H43.292C44.116 49.1113 44.784 48.4434 44.784 47.6193V41.4813C44.7841 36.1866 42.773 31.1592 39.1215 27.3249ZM25.0014 43.6576C20.6957 43.6576 17.1929 40.1547 17.1929 35.849C17.1929 31.5435 20.6958 28.0405 25.0014 28.0405C29.3069 28.0405 32.8099 31.5435 32.8099 35.849C32.8099 40.1547 29.3069 43.6576 25.0014 43.6576Z" fill="white"/>
<path d="M25.0003 31.0244C22.3399 31.0244 20.1758 33.1887 20.1758 35.8489C20.1758 38.5093 22.34 40.6735 25.0003 40.6735C27.6605 40.6735 29.8248 38.5093 29.8248 35.8489C29.8248 33.1888 27.6605 31.0244 25.0003 31.0244Z" fill="white"/>
</g>
<defs>
<clipPath id="clip0">
<rect width="50" height="50" fill="white"/>
</clipPath>
</defs>
</svg>
