<svg width="46" height="50" viewBox="0 0 46 50" fill="none" xmlns="http://www.w3.org/2000/svg">
<rect width="46" height="50" fill="#E5E5E5"/>
<rect width="414" height="896" transform="translate(-184 -216)" fill="white" fill-opacity="0.8"/>
<g filter="url(#filter0_di)">
<rect x="-154" y="-21" width="354" height="120" fill="white"/>
</g>
<g clip-path="url(#clip0)">
<path d="M31.7971 49.0232H16.7324L20.6353 39.6533H27.8942L31.7971 49.0232Z" fill="white"/>
<path d="M34.2551 39.6534H14.4177C12.4589 39.6534 10.8187 38.0504 10.8561 36.092C10.8923 34.194 12.4422 32.6667 14.3487 32.6667H28.2318C30.0836 32.6667 31.681 31.3664 32.0567 29.5531L37.4014 3.76228C37.7929 1.87302 39.6418 0.658859 41.5308 1.05046C43.4201 1.44196 44.6342 3.29089 44.2426 5.17985L37.6757 36.8689C37.3397 38.4905 35.9112 39.6534 34.2551 39.6534Z" fill="white"/>
<path d="M30.4389 11.5232C27.6055 10.9357 24.8319 12.757 24.2446 15.5908L23.39 19.8486L21.0656 22.1864H13.0369C11.831 22.1864 10.8535 23.164 10.8535 24.3698C10.8535 25.5757 11.831 26.5531 13.0369 26.5531H9.32557C7.93416 26.5531 6.71844 27.4928 6.36756 28.8391L1.74793 46.5699C1.42449 47.8112 2.36131 49.0232 3.64393 49.0232H5.91199C6.80389 49.0232 7.58319 48.4209 7.80799 47.5579L11.6878 32.6665H15.3873L28.2296 32.6666C30.0815 32.6666 31.679 31.3662 32.0546 29.5527L34.5064 17.7175C35.0938 14.8837 33.2726 12.1104 30.4389 11.5232Z" fill="#6E5BBA"/>
<path d="M30.9917 1.2085C28.4106 1.2085 26.3184 3.30088 26.3184 5.88184V6.73154C26.3184 9.3126 28.4107 11.4049 30.9917 11.4049C33.5728 11.4049 35.665 9.3125 35.665 6.73154V5.88184C35.6651 3.30088 33.5728 1.2085 30.9917 1.2085Z" fill="#FFC144"/>
<path d="M40.6083 21.7368C40.3505 21.7368 40.0995 21.8412 39.9179 22.0229C39.7353 22.2046 39.6309 22.4565 39.6309 22.7134C39.6309 22.9702 39.7353 23.2222 39.9179 23.4037C40.0986 23.5854 40.3506 23.6899 40.6083 23.6899C40.8651 23.6899 41.1171 23.5854 41.2987 23.4037C41.4803 23.2222 41.5849 22.9702 41.5849 22.7134C41.5849 22.4565 41.4804 22.2046 41.2987 22.0229C41.1161 21.8412 40.865 21.7368 40.6083 21.7368Z" fill="black"/>
<path d="M44.5568 2.01771C43.9014 1.01967 42.8966 0.33656 41.7275 0.0943724C40.5588 -0.147717 39.365 0.0795287 38.367 0.734997C37.3689 1.39037 36.6858 2.39515 36.4436 3.56429L36.3397 4.06595C35.5815 1.8391 33.4711 0.232165 30.991 0.232165C27.8755 0.232165 25.3411 2.76674 25.3411 5.88207V6.73177C25.3411 8.35736 26.0321 9.82386 27.1346 10.8555C26.729 11.0132 26.3364 11.2135 25.9639 11.4581C24.5758 12.3697 23.6258 13.7671 23.2876 15.399L22.4908 19.3687L20.6597 21.2102H13.0372C11.2948 21.2102 9.8773 22.6278 9.8773 24.3701C9.8773 24.7973 9.96294 25.2047 10.1173 25.5768H9.32574C7.49058 25.5768 5.8856 26.8171 5.42291 28.5932L4.27027 33.0168C4.13423 33.5388 4.44712 34.0721 4.969 34.208C5.05162 34.2296 5.13433 34.2399 5.21587 34.2399C5.64957 34.2398 6.04576 33.9487 6.16021 33.5093L7.31285 29.0857C7.55152 28.1697 8.37935 27.5299 9.32574 27.5299H23.6315C23.8922 27.5299 24.1421 27.4257 24.3254 27.2404L29.2692 22.246C29.6487 21.8627 29.6456 21.2444 29.2623 20.865C28.8789 20.4854 28.2606 20.4886 27.8812 20.8719L23.2241 25.5767H13.0373C12.3719 25.5767 11.8305 25.0353 11.8305 24.37C11.8305 23.7046 12.3719 23.1632 13.0373 23.1632H21.066C21.3259 23.1632 21.5752 23.0595 21.7585 22.8752L27.3484 17.2532C27.7288 16.8707 27.7269 16.2524 27.3445 15.872C26.962 15.4918 26.3437 15.4934 25.9634 15.876L24.9866 16.8585L25.2012 15.7893C25.4323 14.6742 26.0839 13.7158 27.036 13.0906C27.9879 12.4655 29.1264 12.2484 30.2411 12.4796C31.3562 12.7107 32.3146 13.3622 32.9397 14.3141C33.5648 15.2661 33.7818 16.4043 33.5507 17.5195C33.5492 17.5268 33.5487 17.534 33.5473 17.5413L31.0991 29.355C30.8186 30.708 29.6121 31.6902 28.2303 31.6902H14.3473C12.0576 31.6902 10.1396 33.4537 9.90308 35.6931C9.88414 35.7375 9.86714 35.7831 9.85464 35.8313L6.86343 47.3119C6.75074 47.7446 6.35962 48.0467 5.91246 48.0467H3.64439C3.33765 48.0467 3.05425 47.9076 2.86675 47.6649C2.67916 47.4223 2.61607 47.1129 2.69332 46.8162L4.32427 40.5564C4.46031 40.0344 4.14732 39.5011 3.62554 39.3652C3.10347 39.2288 2.57027 39.542 2.43433 40.0639L0.803375 46.3238C0.572418 47.2103 0.761187 48.1345 1.32144 48.8593C1.8816 49.5842 2.72837 49.9999 3.64449 49.9999H5.91246C7.24849 49.9999 8.41675 49.097 8.75347 47.8043L11.0187 39.11C11.0635 39.1598 11.1091 39.2091 11.1564 39.2574C12.0123 40.1297 13.2005 40.63 14.4165 40.63H19.1702L15.8304 48.648C15.7049 48.9494 15.7383 49.2935 15.9194 49.5653C16.1004 49.8369 16.4054 50 16.7319 50H31.7966C32.1232 50 32.4281 49.8369 32.6091 49.5653C32.7902 49.2936 32.8236 48.9494 32.6981 48.648L29.3584 40.63H34.2538C36.3622 40.63 38.2028 39.1316 38.6305 37.0672L40.7683 26.7515C40.8778 26.2234 40.5384 25.7066 40.0102 25.5971C39.4825 25.4882 38.9653 25.827 38.8558 26.3552L36.718 36.671C36.4772 37.8333 35.4408 38.677 34.2537 38.677H14.4164C13.7215 38.677 13.0415 38.3901 12.5505 37.8896C12.0739 37.4037 11.8184 36.7721 11.831 36.1108C11.8571 34.7502 12.9859 33.6433 14.3474 33.6433H28.2305C30.5336 33.6433 32.5443 32.0065 33.0117 29.7514L38.3563 3.96049C38.4926 3.30219 38.8773 2.73646 39.4392 2.36742C40.0012 1.99857 40.6733 1.87054 41.3314 2.00687C41.9897 2.1432 42.5554 2.52787 42.9245 3.08978C43.2934 3.6517 43.4215 4.32377 43.285 4.98197L40.3834 18.9839C40.2739 19.512 40.6132 20.0288 41.1415 20.1383C41.6694 20.2478 42.1865 19.9084 42.2959 19.3802L45.1975 5.37826C45.4397 4.20912 45.2123 3.01576 44.5568 2.01771ZM27.2424 40.6299L30.3319 48.0468H18.1964L21.2859 40.6299H27.2424ZM27.2942 5.88197C27.2942 3.84349 28.9526 2.18519 30.991 2.18519C33.0294 2.18519 34.6877 3.84359 34.6877 5.88197V6.73168C34.6877 8.77015 33.0294 10.4285 30.991 10.4285C28.9525 10.4285 27.2942 8.77006 27.2942 6.73168V5.88197ZM33.3446 11.8661C33.9448 11.5899 34.4888 11.2122 34.9539 10.754L34.4691 13.0932C34.146 12.6304 33.7685 12.2184 33.3446 11.8661Z" fill="black"/>
<path d="M4.33594 37.6182C4.59287 37.6182 4.84375 37.5146 5.02637 37.332C5.20801 37.1513 5.3125 36.8993 5.3125 36.6416C5.3125 36.3848 5.20811 36.1328 5.02637 35.9512C4.84482 35.7696 4.59287 35.665 4.33594 35.665C4.0791 35.665 3.82715 35.7695 3.64561 35.9512C3.46396 36.1338 3.35938 36.3848 3.35938 36.6416C3.35938 36.8994 3.46387 37.1504 3.64561 37.332C3.82715 37.5146 4.0791 37.6182 4.33594 37.6182Z" fill="black"/>
</g>
<defs>
<filter id="filter0_di" x="-157" y="-21" width="360" height="126" filterUnits="userSpaceOnUse" color-interpolation-filters="sRGB">
<feFlood flood-opacity="0" result="BackgroundImageFix"/>
<feColorMatrix in="SourceAlpha" type="matrix" values="0 0 0 0 0 0 0 0 0 0 0 0 0 0 0 0 0 0 127 0"/>
<feOffset dy="3"/>
<feGaussianBlur stdDeviation="1.5"/>
<feColorMatrix type="matrix" values="0 0 0 0 0.883333 0 0 0 0 0.86125 0 0 0 0 0.86125 0 0 0 0.15 0"/>
<feBlend mode="normal" in2="BackgroundImageFix" result="effect1_dropShadow"/>
<feBlend mode="normal" in="SourceGraphic" in2="effect1_dropShadow" result="shape"/>
<feColorMatrix in="SourceAlpha" type="matrix" values="0 0 0 0 0 0 0 0 0 0 0 0 0 0 0 0 0 0 127 0" result="hardAlpha"/>
<feOffset dy="3"/>
<feGaussianBlur stdDeviation="1.5"/>
<feComposite in2="hardAlpha" operator="arithmetic" k2="-1" k3="1"/>
<feColorMatrix type="matrix" values="0 0 0 0 0.882353 0 0 0 0 0.862745 0 0 0 0 0.862745 0 0 0 0.15 0"/>
<feBlend mode="normal" in2="shape" result="effect2_innerShadow"/>
</filter>
<clipPath id="clip0">
<rect width="50" height="50" fill="white" transform="translate(-2)"/>
</clipPath>
</defs>
</svg>
