<svg width="47" height="47" viewBox="0 0 47 47" fill="none" xmlns="http://www.w3.org/2000/svg">
<g filter="url(#filter0_d)">
<g clip-path="url(#clip0)">
<path d="M21.7506 36.4255H14.3398V31.1284C14.3398 27.4962 17.2843 24.5518 20.9164 24.5518H21.7506V36.4255Z" fill="white"/>
<path d="M25.249 36.4255H32.6598V31.1284C32.6598 27.4962 29.7154 24.5518 26.0832 24.5518H25.249V36.4255Z" fill="white"/>
<path d="M29.9004 30.4449L29.1623 29.2826L27.6359 30.2519L24.188 28.0622V21.8735H22.8111V28.0622L19.3632 30.2519L17.8368 29.2826L17.0986 30.4449L18.079 31.0675L17.0986 31.69L17.8368 32.8524L23.4995 29.2562L29.1623 32.8524L29.9004 31.69L28.9201 31.0675L29.9004 30.4449Z" fill="#64E1DC"/>
<path d="M29.9009 30.4449L29.1627 29.2826L27.6364 30.2519L24.1885 28.0622V21.8735H23.5V29.2562L29.1627 32.8524L29.9009 31.69L28.9206 31.0675L29.9009 30.4449Z" fill="#00C8C8"/>
<path d="M25.0212 22.562H21.9788L21.0908 19.6265H25.9091L25.0212 22.562Z" fill="white"/>
<path d="M25.0212 22.562H23.5V19.6265H25.9092L25.0212 22.562Z" fill="white"/>
<path d="M35.25 14.4727H11.75V15.8496H35.25V14.4727Z" fill="white"/>
<path d="M35.25 14.4727H23.5V15.8496H35.25V14.4727Z" fill="white"/>
<path d="M27.0074 12.9253H19.9932V19.9395H27.0074V12.9253Z" fill="#64E1DC"/>
<path d="M27.0071 12.9253H23.5V19.9395H27.0071V12.9253Z" fill="#00C8C8"/>
</g>
</g>
<defs>
<filter id="filter0_d" x="9.75" y="12.9253" width="27.5" height="27.5" filterUnits="userSpaceOnUse" color-interpolation-filters="sRGB">
<feFlood flood-opacity="0" result="BackgroundImageFix"/>
<feColorMatrix in="SourceAlpha" type="matrix" values="0 0 0 0 0 0 0 0 0 0 0 0 0 0 0 0 0 0 127 0"/>
<feOffset dy="2"/>
<feGaussianBlur stdDeviation="1"/>
<feColorMatrix type="matrix" values="0 0 0 0 0.929167 0 0 0 0 0.828507 0 0 0 0 0.828507 0 0 0 0.25 0"/>
<feBlend mode="normal" in2="BackgroundImageFix" result="effect1_dropShadow"/>
<feBlend mode="normal" in="SourceGraphic" in2="effect1_dropShadow" result="shape"/>
</filter>
<clipPath id="clip0">
<rect width="23.5" height="23.5" fill="white" transform="translate(11.75 12.9253)"/>
</clipPath>
</defs>
</svg>
