<svg width="24" height="24" viewBox="0 0 24 24" fill="none" xmlns="http://www.w3.org/2000/svg">
<g clip-path="url(#clip0)">
<path d="M10.0006 23.5002H2.58984V18.2031C2.58984 14.5709 5.53427 11.6265 9.16645 11.6265H10.0006V23.5002Z" fill="#F48989"/>
<path d="M13.499 23.5002H20.9098V18.2031C20.9098 14.5709 17.9654 11.6265 14.3332 11.6265H13.499V23.5002Z" fill="#F48989"/>
<path d="M18.1504 17.5196L17.4123 16.3573L15.8859 17.3266L12.438 15.1369V8.94824H11.0611V15.1369L7.61317 17.3266L6.08682 16.3573L5.34863 17.5196L6.32898 18.1422L5.34863 18.7647L6.08682 19.9271L11.7495 16.3309L17.4123 19.9271L18.1504 18.7647L17.1701 18.1422L18.1504 17.5196Z" fill="#F48989"/>
<path d="M18.1509 17.5196L17.4127 16.3573L15.8864 17.3266L12.4385 15.1369V8.94824H11.75V16.3309L17.4127 19.9271L18.1509 18.7647L17.1706 18.1422L18.1509 17.5196Z" fill="#F48989"/>
<path d="M13.2712 9.6367H10.2288L9.34082 6.70117H14.1591L13.2712 9.6367Z" fill="#F48989"/>
<path d="M13.2712 9.6367H11.75V6.70117H14.1592L13.2712 9.6367Z" fill="#F48989"/>
<path d="M23.5 1.54736H0V2.92432H23.5V1.54736Z" fill="#F48989"/>
<path d="M23.5 1.54736H11.75V2.92432H23.5V1.54736Z" fill="#F48989"/>
<path d="M15.2574 0H8.24316V7.0142H15.2574V0Z" fill="#F48989"/>
<path d="M15.2571 0H11.75V7.0142H15.2571V0Z" fill="#F48989"/>
</g>
<defs>
<clipPath id="clip0">
<rect width="23.5" height="23.5" fill="white"/>
</clipPath>
</defs>
</svg>
