<svg width="50" height="50" viewBox="0 0 50 50" fill="none" xmlns="http://www.w3.org/2000/svg">
<rect width="50" height="50" fill="#E5E5E5"/>
<rect width="414" height="896" transform="translate(-182 -523)" fill="white" fill-opacity="0.8"/>
<g filter="url(#filter0_di)">
<rect x="-152" y="-22" width="354" height="120" fill="white"/>
</g>
<path d="M33.7402 18.2129C37.4078 18.2129 40.3809 15.2398 40.3809 11.5723C40.3809 7.90475 37.4078 4.93164 33.7402 4.93164C30.0727 4.93164 27.0996 7.90475 27.0996 11.5723C27.0996 15.2398 30.0727 18.2129 33.7402 18.2129Z" fill="#6E5BBA"/>
<path d="M33.7402 4.93164C33.2366 4.93164 32.7469 4.98955 32.2754 5.0958C35.2378 5.76309 37.4512 8.4083 37.4512 11.5723C37.4512 14.7362 35.2378 17.3814 32.2754 18.0487C32.7469 18.155 33.2366 18.2129 33.7402 18.2129C37.4077 18.2129 40.3809 15.2397 40.3809 11.5723C40.3809 7.90479 37.4077 4.93164 33.7402 4.93164Z" fill="#6E5BBA"/>
<path d="M7.37305 18.2129C11.0406 18.2129 14.0137 15.2398 14.0137 11.5723C14.0137 7.90475 11.0406 4.93164 7.37305 4.93164C3.70553 4.93164 0.732422 7.90475 0.732422 11.5723C0.732422 15.2398 3.70553 18.2129 7.37305 18.2129Z" fill="#6E5BBA"/>
<path d="M7.37305 4.93164C6.86943 4.93164 6.37969 4.98955 5.9082 5.0958C8.87061 5.76309 11.084 8.4083 11.084 11.5723C11.084 14.7362 8.87061 17.3814 5.9082 18.0487C6.37969 18.155 6.86943 18.2129 7.37305 18.2129C11.0405 18.2129 14.0137 15.2397 14.0137 11.5723C14.0137 7.90479 11.0405 4.93164 7.37305 4.93164Z" fill="#6E5BBA"/>
<path d="M20.5566 44.873C31.1817 44.873 39.7949 36.2598 39.7949 25.6348C39.7949 15.0098 31.1817 6.39648 20.5566 6.39648C9.93163 6.39648 1.31836 15.0098 1.31836 25.6348C1.31836 36.2598 9.93163 44.873 20.5566 44.873Z" fill="#FFC144"/>
<path d="M20.5566 41.9434C29.5636 41.9434 36.8652 34.6418 36.8652 25.6348C36.8652 16.6278 29.5636 9.32617 20.5566 9.32617C11.5497 9.32617 4.24805 16.6278 4.24805 25.6348C4.24805 34.6418 11.5497 41.9434 20.5566 41.9434Z" fill="white"/>
<path d="M20.5566 9.32617C20.0629 9.32617 19.5745 9.34951 19.0918 9.39268C27.4006 10.1359 33.9355 17.1359 33.9355 25.6348C33.9355 34.1336 27.4006 41.1336 19.0918 41.8769C19.5745 41.92 20.0629 41.9434 20.5566 41.9434C29.5492 41.9434 36.8652 34.6273 36.8652 25.6348C36.8652 16.6422 29.5492 9.32617 20.5566 9.32617Z" fill="#EDEBED"/>
<path d="M20.5566 26.9043C21.3657 26.9043 22.0215 26.2485 22.0215 25.4395C22.0215 24.6304 21.3657 23.9746 20.5566 23.9746C19.7476 23.9746 19.0918 24.6304 19.0918 25.4395C19.0918 26.2485 19.7476 26.9043 20.5566 26.9043Z" fill="#6E5BBA"/>
<path d="M39.2861 49.2676C44.7987 49.2676 49.2676 44.7987 49.2676 39.2861C49.2676 33.7735 44.7987 29.3047 39.2861 29.3047C33.7735 29.3047 29.3047 33.7735 29.3047 39.2861C29.3047 44.7987 33.7735 49.2676 39.2861 49.2676Z" fill="#6E5BBA"/>
<path d="M39.2852 29.3066C38.7875 29.3066 38.2984 29.3436 37.8203 29.4139C42.6384 30.1226 46.3369 34.2731 46.3369 39.288C46.3369 44.3028 42.6384 48.4534 37.8203 49.1621C38.2984 49.2324 38.7875 49.2694 39.2852 49.2694C44.7978 49.2694 49.2666 44.8006 49.2666 39.288C49.2666 33.7754 44.7978 29.3066 39.2852 29.3066Z" fill="#6E5BBA"/>
<path d="M34.919 43.6544C33.8968 42.6321 33.8968 40.9747 34.919 39.9523L39.9538 34.9176C40.9761 33.8953 42.6335 33.8953 43.6559 34.9176C44.6781 35.9398 44.6781 37.5973 43.6559 38.6196L38.6211 43.6544C37.5988 44.6768 35.9413 44.6768 34.919 43.6544Z" fill="#DD636E"/>
<path d="M34.919 39.9524C33.8968 40.9747 33.8968 42.6321 34.919 43.6545C35.9413 44.6768 37.5987 44.6768 38.6211 43.6545L41.1385 41.1371L37.4364 37.4351L34.919 39.9524Z" fill="white"/>
<path d="M39.2861 28.5723C38.6108 28.5723 37.9502 28.6357 37.3093 28.7558C37.4999 27.7298 37.5977 26.6847 37.5977 25.6348C37.5977 16.2383 29.9531 8.59375 20.5566 8.59375C17.852 8.59375 15.2636 9.21191 12.8636 10.4312C10.576 11.5933 8.54336 13.2904 6.98545 15.3394C6.74053 15.6614 6.80312 16.1209 7.1251 16.3657C7.44736 16.6107 7.90684 16.548 8.15146 16.2261C9.57646 14.3521 11.4354 12.7998 13.5271 11.7371C15.7195 10.6233 18.0847 10.0586 20.5566 10.0586C29.1453 10.0586 36.1328 17.0461 36.1328 25.6348C36.1328 26.8328 35.9944 28.0239 35.7237 29.1819C33.2752 30.0478 31.2324 31.7795 29.9655 34.0078L29.0156 33.0579C28.7295 32.772 28.2658 32.772 27.9798 33.0579C27.6938 33.344 27.6938 33.8077 27.9798 34.0938L29.2975 35.4114C28.8647 36.5234 28.6123 37.7247 28.5769 38.9795C26.1587 40.4395 23.395 41.2109 20.5566 41.2109C11.968 41.2109 4.98047 34.2234 4.98047 25.6348C4.98047 23.3237 5.47695 21.0981 6.45605 19.0198C6.62842 18.6539 6.47148 18.2175 6.10557 18.0451C5.73965 17.8729 5.30332 18.0297 5.13086 18.3956C4.05908 20.6705 3.51562 23.1062 3.51562 25.6348C3.51562 35.0312 11.1602 42.6758 20.5566 42.6758C23.4 42.6758 26.176 41.9698 28.6558 40.6245C28.72 41.1379 28.8212 41.6399 28.9558 42.1283C26.3703 43.4464 23.4794 44.1406 20.5566 44.1406C10.3525 44.1406 2.05078 35.8389 2.05078 25.6348C2.05078 15.4307 10.3525 7.12891 20.5566 7.12891C30.7607 7.12891 39.0625 15.4307 39.0625 25.6348C39.0625 26.0394 39.3903 26.3672 39.7949 26.3672C40.1995 26.3672 40.5273 26.0394 40.5273 25.6348C40.5273 22.5851 39.8392 19.6934 38.6116 17.1053C40.1877 15.714 41.1133 13.6879 41.1133 11.5723C41.1133 10.1458 40.7049 8.81348 40.0006 7.68379L40.8563 6.95361C41.164 6.69111 41.2005 6.22881 40.938 5.92109C40.6755 5.61357 40.2132 5.57676 39.9055 5.83936L39.105 6.52236C37.7595 5.09375 35.8529 4.19922 33.7402 4.19922C31.437 4.19922 29.2983 5.26055 27.9057 7.06523C25.8452 6.24697 23.6172 5.76328 21.2891 5.67891V1.46484H23.1934C23.5979 1.46484 23.9258 1.13701 23.9258 0.732422C23.9258 0.327832 23.5979 0 23.1934 0H17.9199C17.5153 0 17.1875 0.327832 17.1875 0.732422C17.1875 1.13701 17.5153 1.46484 17.9199 1.46484H19.8242V5.67891C17.4961 5.76328 15.2681 6.24697 13.2076 7.06523C11.8149 5.26055 9.67637 4.19922 7.37305 4.19922C5.26035 4.19922 3.35381 5.09375 2.0083 6.52236L1.20781 5.83936C0.900098 5.57676 0.437695 5.61357 0.175293 5.92109C-0.087207 6.22881 -0.0506836 6.69111 0.257031 6.95361L1.1127 7.68379C0.408398 8.81348 0 10.1458 0 11.5723C0 13.6879 0.925586 15.714 2.50166 17.1053C1.27412 19.6934 0.585938 22.5851 0.585938 25.6348C0.585938 34.0822 5.8582 41.321 13.2848 44.2347L9.91816 48.8351C9.6793 49.1614 9.75029 49.6197 10.0768 49.8586C10.4004 50.0954 10.8598 50.0288 11.1003 49.7L14.7315 44.738C16.5753 45.3014 18.5311 45.6055 20.5566 45.6055C22.5357 45.6055 24.501 45.3081 26.3807 44.7366L30.0129 49.7001C30.2536 50.0289 30.7128 50.0955 31.0364 49.8587C31.3629 49.6198 31.4339 49.1614 31.195 48.8352L27.8293 44.2358C28.3781 44.0217 28.9171 43.7822 29.445 43.5197C31.0896 47.3278 34.8814 50 39.2861 50C45.1937 50 50 45.1937 50 39.2861C50 33.3785 45.1937 28.5723 39.2861 28.5723ZM33.7402 5.66406C36.9979 5.66406 39.6484 8.31455 39.6484 11.5723C39.6484 13.1713 39.022 14.6554 37.9087 15.7575C35.919 12.2759 32.9119 9.44766 29.2953 7.68027C30.4097 6.40527 32.0175 5.66406 33.7402 5.66406ZM1.46484 11.5723C1.46484 8.31455 4.11533 5.66406 7.37305 5.66406C9.0958 5.66406 10.7036 6.40527 11.818 7.68027C8.20137 9.44766 5.19424 12.2759 3.20459 15.7575C2.09131 14.6554 1.46484 13.1713 1.46484 11.5723ZM39.2861 48.5352C34.1861 48.5352 30.0371 44.3861 30.0371 39.2861C30.0371 34.1861 34.1861 30.0371 39.2861 30.0371C44.3861 30.0371 48.5352 34.1861 48.5352 39.2861C48.5352 44.3861 44.3861 48.5352 39.2861 48.5352ZM7.17773 26.1719H9.32617C9.73076 26.1719 10.0586 25.844 10.0586 25.4395C10.0586 25.0349 9.73076 24.707 9.32617 24.707H7.17773C6.77314 24.707 6.44531 25.0349 6.44531 25.4395C6.44531 25.844 6.77314 26.1719 7.17773 26.1719ZM39.4347 34.3998L34.3998 39.4347C33.0937 40.7409 33.0937 42.8663 34.3998 44.1726C35.7061 45.4787 37.8315 45.4784 39.1378 44.1726L44.1726 39.1377C45.4786 37.8315 45.4786 35.7061 44.1726 34.3998C42.8661 33.0937 40.741 33.0937 39.4347 34.3998ZM38.102 43.1366C37.367 43.8716 36.1708 43.8717 35.4355 43.1366C34.7005 42.4017 34.7006 41.2056 35.4356 40.4705L37.4352 38.471L40.1014 41.1372L38.102 43.1366ZM43.1366 38.1019L41.1372 40.1013L38.471 37.4352L40.4705 35.4356C41.2055 34.7004 42.4016 34.7005 43.1366 35.4355C43.8717 36.1707 43.8717 37.3669 43.1366 38.1019ZM29.0157 18.2115L30.535 16.6923C30.821 16.4062 30.821 15.9425 30.535 15.6564C30.2488 15.3705 29.7852 15.3705 29.4991 15.6564L27.9799 17.1757C27.6938 17.4618 27.6938 17.9255 27.9799 18.2115C28.2658 18.4977 28.7296 18.4976 29.0157 18.2115ZM33.9355 26.1719C34.3401 26.1719 34.668 25.844 34.668 25.4395C34.668 25.0349 34.3401 24.707 33.9355 24.707H31.7871C31.3825 24.707 31.0547 25.0349 31.0547 25.4395C31.0547 25.844 31.3825 26.1719 31.7871 26.1719H33.9355ZM19.8242 36.8652V39.0137C19.8242 39.4183 20.1521 39.7461 20.5566 39.7461C20.9612 39.7461 21.2891 39.4183 21.2891 39.0137V36.8652C21.2891 36.4606 20.9612 36.1328 20.5566 36.1328C20.1521 36.1328 19.8242 36.4606 19.8242 36.8652ZM19.8242 23.3682C18.9718 23.6705 18.3594 24.4847 18.3594 25.4395C18.3594 26.651 19.3451 27.6367 20.5566 27.6367C21.5114 27.6367 22.3256 27.0243 22.6279 26.1719H24.7412C25.1458 26.1719 25.4736 25.844 25.4736 25.4395C25.4736 25.0349 25.1458 24.707 24.7412 24.707H22.6279C22.4068 24.0838 21.9123 23.5893 21.2891 23.3682V18.2129C21.2891 17.8083 20.9612 17.4805 20.5566 17.4805C20.1521 17.4805 19.8242 17.8083 19.8242 18.2129V23.3682ZM20.5566 24.707C21.0616 24.707 21.3382 25.1033 21.2822 25.5342C21.2355 25.8934 20.9283 26.1719 20.5566 26.1719C20.1527 26.1719 19.8242 25.8434 19.8242 25.4395C19.8242 25.0355 20.1527 24.707 20.5566 24.707ZM20.5566 15.1367C20.9612 15.1367 21.2891 14.8089 21.2891 14.4043V12.2559C21.2891 11.8513 20.9612 11.5234 20.5566 11.5234C20.1521 11.5234 19.8242 11.8513 19.8242 12.2559V14.4043C19.8242 14.8089 20.1521 15.1367 20.5566 15.1367ZM12.0976 18.2115C12.3837 18.4975 12.8475 18.4977 13.1334 18.2115C13.4194 17.9254 13.4194 17.4617 13.1334 17.1757L11.6142 15.6564C11.328 15.3705 10.8644 15.3705 10.5783 15.6564C10.2923 15.9426 10.2923 16.4062 10.5783 16.6923L12.0976 18.2115ZM10.5783 35.6131C10.8644 35.8992 11.328 35.899 11.6142 35.6131L13.1334 34.0938C13.4194 33.8077 13.4194 33.344 13.1334 33.058C12.8473 32.7721 12.3836 32.7721 12.0976 33.058L10.5783 34.5772C10.2924 34.8633 10.2924 35.327 10.5783 35.6131Z" fill="#6E5BBA"/>
<defs>
<filter id="filter0_di" x="-155" y="-22" width="360" height="126" filterUnits="userSpaceOnUse" color-interpolation-filters="sRGB">
<feFlood flood-opacity="0" result="BackgroundImageFix"/>
<feColorMatrix in="SourceAlpha" type="matrix" values="0 0 0 0 0 0 0 0 0 0 0 0 0 0 0 0 0 0 127 0"/>
<feOffset dy="3"/>
<feGaussianBlur stdDeviation="1.5"/>
<feColorMatrix type="matrix" values="0 0 0 0 0.883333 0 0 0 0 0.86125 0 0 0 0 0.86125 0 0 0 0.15 0"/>
<feBlend mode="normal" in2="BackgroundImageFix" result="effect1_dropShadow"/>
<feBlend mode="normal" in="SourceGraphic" in2="effect1_dropShadow" result="shape"/>
<feColorMatrix in="SourceAlpha" type="matrix" values="0 0 0 0 0 0 0 0 0 0 0 0 0 0 0 0 0 0 127 0" result="hardAlpha"/>
<feOffset dy="3"/>
<feGaussianBlur stdDeviation="1.5"/>
<feComposite in2="hardAlpha" operator="arithmetic" k2="-1" k3="1"/>
<feColorMatrix type="matrix" values="0 0 0 0 0.882353 0 0 0 0 0.862745 0 0 0 0 0.862745 0 0 0 0.15 0"/>
<feBlend mode="normal" in2="shape" result="effect2_innerShadow"/>
</filter>
</defs>
</svg>
