<svg width="50" height="50" viewBox="0 0 50 50" fill="none" xmlns="http://www.w3.org/2000/svg">
<path d="M40.4683 44.5381C40.4768 45.8818 39.2964 46.9834 37.8358 46.9941L31.9902 47.0254L31.918 35.3633C32.0164 35.3628 31.0477 35.368 37.7732 35.332C39.2281 35.332 40.4149 36.4141 40.4237 37.7578L40.4683 44.5381Z" fill="#FFC144"/>
<path d="M17.234 11.1017C0.7655 14.4729 1.72115 14.2563 1.55482 14.3234L0.0146061 3.90746C-0.0989726 3.13696 0.46149 2.41919 1.29051 2.27173L13.9296 0.0276048C14.828 -0.131183 15.6898 0.437465 15.8095 1.27271L17.234 11.1017Z" fill="#FFC144"/>
<path d="M17.233 11.1009C13.9933 11.7639 11.4277 12.2883 9.39499 12.7034C7.54514 -0.463411 7.79013 1.28033 7.76773 1.12046L13.9286 0.0267226C14.8266 -0.132456 15.6885 0.436876 15.8085 1.27183C15.8357 1.46021 15.5808 -0.298861 17.233 11.1009Z" fill="#FFC144"/>
<path d="M32.5292 48.5272C32.5334 49.3388 31.8191 49.9999 30.937 49.9999H6.65765C5.85623 49.9999 5.18113 49.453 5.07817 48.7225L2.2525 28.6143L1.84171 25.6954L1.44471 22.8673L1.03392 19.9483L0.395966 15.4074C0.290879 14.6554 0.825866 13.9543 1.62941 13.7892L17.8032 10.4846C18.715 10.298 19.6035 10.8703 19.7266 11.7209L22.7274 32.4219H30.8457C31.7225 32.4219 32.4337 33.0723 32.4379 33.8789L32.5292 48.5272Z" fill="#6E5BBA"/>
<path d="M32.53 48.5272C32.5343 49.3388 31.8199 49.9999 30.9378 49.9999H14.6377C8.78889 8.3836 15.216 54.1154 9.32812 12.216C9.57333 12.1659 8.55781 12.3733 17.8041 10.4846C18.7159 10.298 19.6043 10.8703 19.7275 11.7209L22.7283 32.4219H30.8465C31.7233 32.4219 32.4345 33.0723 32.4387 33.8789L32.53 48.5272Z" fill="#6E5BBA"/>
<path d="M45.7251 35.2764L48.9096 34.2998C49.7438 34.044 50.1946 33.2144 49.9166 32.4469C49.6385 31.6794 48.7368 31.2645 47.9025 31.5204L44.7181 32.497C43.8838 32.7529 43.433 33.5824 43.711 34.3499C43.9897 35.1189 44.8923 35.5318 45.7251 35.2764Z" fill="#FFC144"/>
<path d="M48.4056 38.2812H45.2211C44.3418 38.2812 43.6289 38.9371 43.6289 39.7461C43.6289 40.5551 44.3418 41.2109 45.2211 41.2109H48.4056C49.285 41.2109 49.9979 40.5551 49.9979 39.7461C49.9979 38.9371 49.2851 38.2812 48.4056 38.2812Z" fill="#FFC144"/>
<path d="M48.8998 45.1927L45.7153 44.2161C44.8812 43.9605 43.9794 44.3751 43.7012 45.1426C43.4232 45.9101 43.8741 46.7397 44.7083 46.9955L47.8928 47.9721C48.7269 48.2278 49.6286 47.8131 49.9068 47.0456C50.1848 46.2781 49.734 45.4485 48.8998 45.1927Z" fill="#FFC144"/>
<path d="M12.9132 18.9376C12.7158 18.1495 11.8613 17.6573 11.0047 17.839L1.03516 19.9484L1.44595 22.8673L11.718 20.6935C12.5746 20.5118 13.1096 19.7257 12.9132 18.9376Z" fill="#FFC144"/>
<path d="M13.7314 24.6827C13.534 23.8946 12.6795 23.4025 11.8228 23.5841L1.84375 25.6954L2.25455 28.6144L12.5362 26.4386C13.3928 26.2579 13.9278 25.4718 13.7314 24.6827Z" fill="#FFC144"/>
<path d="M11.7168 20.6935L10.5534 20.9396L10.1426 18.0206L11.0034 17.839C11.8601 17.6573 12.7146 18.1495 12.912 18.9376C13.1084 19.7257 12.5734 20.5118 11.7168 20.6935Z" fill="#FFC144"/>
<path d="M12.5349 26.4386L11.362 26.6866L10.9512 23.7687L11.8216 23.5841C12.6782 23.4025 13.5327 23.8946 13.7302 24.6827C13.9265 25.4718 13.3915 26.2579 12.5349 26.4386Z" fill="#FFC144"/>
</svg>
